# xmcd CD database file
# Copyright (C) 1997 Ti Kan
# 
# Track frame offsets:
#     200
#     25975
#     41112
#     66587
#     83120
#     96332
#     112755
#     128202
#     161025
#     182955
#     197675
#     218402
#     238940
#     261265
#     279012
#     303557
# 
# Disc length: 4327 seconds
# 
# Revision: 1
# Processed by: cddbd v1.4b41PL1 Copyright (c) Steve Scherf et al.
# Submitted via: DiscPlay 4.0.3
# 
DISCID=e610e510
DTITLE=Various Artist - He's Alive
DYEAR=1900
DGENRE=
TTITLE0=Celebration of Life Medley
TTITLE1=Was It A Morning Like This?
TTITLE2=I've Just Seen Jesus
TTITLE3=Driving Nails
TTITLE4=Why?
TTITLE5=The Old Rugged Cross
TTITLE6=Glorious Morning
TTITLE7=Watch The Lamb
TTITLE8=Arise My Love
TTITLE9=Love Crucified Arose
TTITLE10=He's Alive
TTITLE11=Via Dolorosa
TTITLE12=Feel The Nails
TTITLE13=Lamb Of God
TTITLE14=They Could Not
TTITLE15=Rise Again
EXTD=
EXTT0=
EXTT1=
EXTT2=
EXTT3=
EXTT4=
EXTT5=
EXTT6=
EXTT7=
EXTT8=
EXTT9=
EXTT10=
EXTT11=
EXTT12=
EXTT13=
EXTT14=
EXTT15=
PLAYORDER=
